<?xml version="1.0" encoding="utf-8"?>
<!-- Generator: Adobe Illustrator 25.0.1, SVG Export Plug-In . SVG Version: 6.00 Build 0)  -->
<svg version="1.1" id="Layer_1" xmlns="http://www.w3.org/2000/svg" xmlns:xlink="http://www.w3.org/1999/xlink" x="0px" y="0px"
	 viewBox="0 0 300 90" style="enable-background:new 0 0 300 90;" xml:space="preserve">
<style type="text/css">
	.st0{fill-rule:evenodd;clip-rule:evenodd;fill:#FF2D20;}
	.st1{fill:#599636;}
	.st2{fill:#6CAC48;}
	.st3{fill:#C2BFBF;}
	.st4{fill:#47474A;}
	.st5{fill-rule:evenodd;clip-rule:evenodd;fill:#00678C;}
	.st6{fill-rule:evenodd;clip-rule:evenodd;fill:#CE8B2C;}
	.st7{fill:#83CD29;}
	.st8{fill:#404137;}
	.st9{fill-rule:evenodd;clip-rule:evenodd;fill:#00D8FF;}
	.st10{fill:#00D8FF;}
	.st11{fill:#E9CA33;}
	.st12{fill:#016EBA;}
	.st13{fill:#E54E27;}
	.st14{fill:#030202;}
	.st15{fill:#030303;}
	.st16{fill:#040404;}
	.st17{fill:#020202;}
	.st18{fill:#FFDE25;}
	.st19{fill:#FFFFFF;}
	.st20{fill:#FEFEFF;}
	.st21{fill:#17A1DC;}
	.st22{fill:#FFFEFE;}
	.st23{fill:#F66B3A;}
	.st24{fill:#FFFFFE;}
	.st25{fill:#E54D26;}
	.st26{fill:#989BA1;}
	.st27{fill:#929497;}
</style>
<g transform="matrix(.277129 0 0 .277129 9.76251 9.894026)">
	<path class="st7" d="M960.6,82.3c-2.6,0-5.2,0.5-7.5,1.8l-71.8,41.4c-4.6,2.7-7.5,7.7-7.5,13.1v82.7c0,5.4,2.8,10.4,7.5,13.1
		l18.7,10.8c9.1,4.5,12.5,4.4,16.6,4.4c13.5,0,21.2-8.2,21.2-22.4v-81.6c0-1.2-1-2-2.1-2h-9c-1.2,0-2.1,0.8-2.1,2v81.7
		c0,6.3-6.6,12.6-17.2,7.3l-19.5-11.4c-0.7-0.4-1.2-1.1-1.2-1.8v-82.7c0-0.8,0.5-1.6,1.2-2l71.6-41.3c0.7-0.4,1.5-0.4,2.1,0
		l71.6,41.3c0.7,0.4,1.2,1.2,1.2,2v82.7c0,0.8-0.4,1.6-1.1,2l-71.8,41.3c-0.6,0.4-1.5,0.4-2.1,0l-18.4-11c-0.6-0.3-1.3-0.3-1.8,0
		c-5.1,2.9-6,3.2-10.8,4.9c-1.2,0.4-3,1,0.6,3l24.1,14.2c2.3,1.3,4.8,2,7.5,2c2.7,0,5.2-0.6,7.5-2l71.8-41.3
		c4.6-2.7,7.5-7.7,7.5-13.1v-82.7c0-5.4-2.8-10.4-7.5-13.1l-71.8-41.4C965.8,82.9,963.2,82.4,960.6,82.3L960.6,82.3z M979.8,141.4
		c-20.4,0-32.6,8.7-32.6,23.2c0,15.7,12.1,20,31.7,21.9c23.5,2.3,25.3,5.7,25.3,10.4c0,8-6.4,11.4-21.5,11.4
		c-19,0-23.1-4.7-24.5-14.2c-0.2-1-0.9-1.8-2-1.8h-9.3c-1.2,0-2.1,1-2.1,2.1c0,12.1,6.6,26.4,37.9,26.4c22.7,0,35.8-8.9,35.8-24.5
		c0-15.5-10.6-19.6-32.6-22.6c-22.2-3-24.4-4.4-24.4-9.6c0-4.3,1.8-10.1,18.3-10.1c14.7,0,20.2,3.2,22.4,13.1c0.2,0.9,1,1.7,2,1.7
		h9.3c0.6,0,1.1-0.4,1.5-0.8c0.4-0.4,0.7-0.9,0.6-1.5C1014.1,149.5,1002.7,141.4,979.8,141.4L979.8,141.4z"/>
	<path class="st8" d="M538.6-26.2c-0.8,0-1.6,0.2-2.3,0.6c-1.4,0.8-2.3,2.3-2.3,4V95c0,1.1-0.5,2.2-1.5,2.7c-1,0.6-2.2,0.6-3.2,0
		l-19-11c-2.8-1.6-6.3-1.6-9.1,0l-76,43.9c-2.8,1.6-4.6,4.8-4.6,8.1v87.8c0,3.3,1.7,6.3,4.6,7.9l76,43.9c2.8,1.6,6.3,1.6,9.1,0
		l76-43.9c2.8-1.6,4.6-4.7,4.6-7.9V7.7c0-3.3-1.8-6.5-4.7-8.1l-45.3-25.3C540.2-26.1,539.4-26.2,538.6-26.2L538.6-26.2z M49.5,83.4
		c-1.5,0.1-2.8,0.3-4.1,1.1l-76,43.9c-2.8,1.6-4.6,4.7-4.6,7.9l0.2,117.8c0,1.6,0.8,3.2,2.3,4c1.4,0.8,3.2,0.8,4.6,0l45.1-25.9
		c2.9-1.7,4.7-4.7,4.7-7.9v-55c0-3.3,1.7-6.3,4.6-7.9l19.2-11.1c1.4-0.8,3-1.2,4.6-1.2c1.6,0,3.2,0.4,4.6,1.2l19.2,11.1
		c2.8,1.6,4.6,4.6,4.6,7.9v55c0,3.3,1.9,6.2,4.7,7.9l45.1,25.9c1.4,0.8,3.2,0.8,4.6,0c1.4-0.8,2.3-2.3,2.3-4l0.2-117.8
		c0-3.3-1.7-6.3-4.6-7.9l-76-43.9c-1.3-0.8-2.7-1-4.1-1.1L49.5,83.4L49.5,83.4z M732.8,84.5c-1.6,0-3.2,0.4-4.6,1.2l-76,43.9
		c-2.8,1.6-4.6,4.6-4.6,7.9v87.8c0,3.3,1.9,6.3,4.7,7.9l75.4,43c2.8,1.6,6.2,1.7,9,0.1l45.7-25.4c1.5-0.8,2.4-2.3,2.4-4
		s-0.9-3.1-2.3-4l-76.5-43.9c-1.4-0.8-2.4-2.5-2.4-4.1v-27.4c0-1.6,1-3.1,2.4-4l23.8-13.7c1.4-0.8,3.2-0.8,4.6,0l23.8,13.7
		c1.4,0.8,2.3,2.3,2.3,4v21.6c0,1.6,0.9,3.1,2.3,4c1.4,0.8,3.2,0.8,4.6,0l45.6-26.5c2.8-1.6,4.6-4.7,4.6-7.9v-21.2
		c0-3.3-1.7-6.3-4.6-7.9l-75.6-43.9C735.9,84.9,734.4,84.5,732.8,84.5L732.8,84.5z M505.4,150c0.4,0,0.8,0.1,1.2,0.3l26.1,15.1
		c0.7,0.4,1.2,1.2,1.2,2v30.2c0,0.8-0.5,1.6-1.2,2l-26.1,15.1c-0.7,0.4-1.6,0.4-2.3,0l-26.1-15.1c-0.7-0.4-1.2-1.2-1.2-2v-30.2
		c0-0.8,0.5-1.6,1.2-2l26.1-15.1C504.7,150.1,505,150,505.4,150L505.4,150L505.4,150z"/>
	<path class="st7" d="M277.9,84c-1.6,0-3.2,0.4-4.6,1.2l-76,43.7c-2.8,1.6-4.6,4.8-4.6,8.1v87.8c0,3.3,1.7,6.3,4.6,7.9l76,43.9
		c2.8,1.6,6.3,1.6,9.1,0l76-43.9c2.8-1.6,4.6-4.7,4.6-7.9V137c0-3.3-1.7-6.4-4.6-8.1l-76-43.7C281.1,84.4,279.5,84,277.9,84
		L277.9,84z M732.6,162.3c-0.3,0-0.6,0-0.9,0.1l-14.6,8.5c-0.6,0.3-0.9,0.9-0.9,1.5v16.8c0,0.6,0.4,1.2,0.9,1.5l14.6,8.4
		c0.5,0.3,1.2,0.3,1.7,0l14.6-8.4c0.5-0.3,0.9-0.9,0.9-1.5v-16.8c0-0.6-0.4-1.2-0.9-1.5l-14.6-8.5
		C733.1,162.3,732.9,162.3,732.6,162.3L732.6,162.3z"/>
</g>
</svg>
